<?xml version="1.0" encoding="UTF-8" standalone="no"?>
<!DOCTYPE svg PUBLIC "-//W3C//DTD SVG 1.1//EN" "http://www.w3.org/Graphics/SVG/1.1/DTD/svg11.dtd">
<svg width="100%" height="100%" viewBox="0 0 800 800" version="1.1" xmlns="http://www.w3.org/2000/svg" xmlns:xlink="http://www.w3.org/1999/xlink" xml:space="preserve" xmlns:serif="http://www.serif.com/" style="fill-rule:evenodd;clip-rule:evenodd;stroke-linejoin:round;stroke-miterlimit:2;">
    <path d="M184.529,394.746L235.266,394.746C235.266,394.746 252.828,481.584 346.494,478.656C440.16,475.729 446.475,473.776 446.475,473.776L415.769,533.306C415.769,533.306 225.508,574.273 184.529,394.746Z" style="fill:rgb(104,48,29);fill-rule:nonzero;"/>
    <path d="M55.962,416.212L180.292,416.212C191.812,416.271 203.265,417.965 214.308,421.245C228.776,425.461 254.826,429.744 290.88,422.614C319.673,416.918 336.736,402.431 346.609,389.346C358.036,374.333 360.065,354.093 351.847,337.111C341.518,315.8 316.64,287.741 256.729,274.744C244.174,273.383 231.481,274.032 219.129,276.666C209.355,278.945 199.15,278.611 189.546,275.696C166.118,268.513 117.647,261.292 61.647,296.527C52.394,302.32 46.758,312.498 46.758,323.415C46.758,335.794 54.004,347.089 65.256,352.249C65.654,352.431 66.056,352.612 66.468,352.791C66.468,352.791 18.704,356.555 22.56,389.8C23.757,399.075 29.388,407.213 37.647,411.6C43.246,414.705 49.56,416.295 55.962,416.212Z" style="fill:rgb(44,102,64);fill-rule:nonzero;"/>
    <path d="M346.609,389.346C358.036,374.333 360.065,354.093 351.847,337.111C341.802,316.386 317.986,289.282 261.579,275.852C270.266,286.002 275.736,298.514 277.289,311.784C280.162,341.214 259.807,367.727 231.125,374.918C216.816,378.504 196.875,380.885 169.4,379.689L117.301,379.689C117.28,379.689 117.26,379.69 117.239,379.69C106.365,379.69 97.418,370.742 97.418,359.868C97.418,356.658 98.197,353.496 99.689,350.654C99.833,350.391 99.979,350.122 100.129,349.852C100.745,348.747 101.068,347.502 101.068,346.237C101.068,342.998 98.95,340.116 95.859,339.148C82.958,335.052 60.866,325.165 53.252,304.144C49.028,309.675 46.739,316.445 46.739,323.405C46.739,335.792 53.991,347.094 65.252,352.256C65.649,352.438 66.052,352.619 66.464,352.798C66.464,352.798 18.699,356.562 22.555,389.807C23.755,399.08 29.388,407.215 37.647,411.6C43.244,414.704 49.556,416.294 55.955,416.212L180.292,416.212C191.812,416.271 203.265,417.965 214.308,421.245C228.776,425.461 254.826,429.744 290.88,422.614C319.673,416.918 336.736,402.431 346.609,389.346Z" style="fill:rgb(36,71,48);fill-rule:nonzero;"/>
    <path d="M179.513,599.442C179.513,594.552 183.477,590.588 188.367,590.588C246.759,590.588 575.987,590.588 634.391,590.588C639.284,590.588 643.249,594.554 643.249,599.446C643.249,599.447 643.249,599.447 643.249,599.447C643.247,618.597 627.488,634.353 608.339,634.353L214.424,634.353C195.272,634.353 179.513,618.594 179.513,599.442L179.513,599.442Z" style="fill:rgb(162,36,27);fill-rule:nonzero;"/>
    <path d="M608.339,634.353L214.424,634.353C214.424,634.353 234.744,678.118 239.955,718.765C240.456,722.77 241.282,726.727 242.426,730.598C248.909,751.805 268.662,766.357 290.838,766.264L531.925,766.264C554.1,766.357 573.854,751.805 580.336,730.598C581.48,726.727 582.306,722.77 582.807,718.765C588.019,678.122 608.339,634.353 608.339,634.353Z" style="fill:rgb(162,36,27);fill-rule:nonzero;"/>
    <path d="M214.424,634.353C214.424,634.353 219.049,644.322 224.449,659.151L598.313,659.151C603.725,644.327 608.339,634.353 608.339,634.353L214.424,634.353Z" style="fill:rgb(110,51,51);fill-rule:nonzero;"/>
    <path d="M502.605,410.353C502.605,410.353 596.273,439.624 601.151,357.666L643.249,357.666C643.249,357.666 652.864,402.546 600.174,435.72C547.485,468.894 540.659,506.598 540.659,506.598L502.605,410.353Z" style="fill:rgb(109,77,72);fill-rule:nonzero;"/>
    <path d="M315.504,206.791L355.268,206.791C355.268,206.791 356.064,268.882 426.405,268.882L348.438,333.278C351.789,325.99 353.516,318.061 353.499,310.04C353.325,297.175 348.265,284.845 339.353,275.565C330.106,265.647 312.016,241.459 315.504,206.791Z" style="fill:rgb(104,48,29);fill-rule:nonzero;"/>
    <path d="M417.536,422.614C417.536,422.614 449.522,439.576 411.381,493.299C373.24,547.021 297.845,590.588 297.845,590.588L504.235,590.588C504.235,590.588 562.675,449.002 417.536,422.614Z" style="fill:rgb(104,48,29);fill-rule:nonzero;"/>
    <path d="M455.235,206.791C455.235,206.791 461.824,249.2 404.341,278.416C404.341,278.416 366.908,295.809 343.054,324.609C333.725,335.995 328.624,350.269 328.624,364.988C328.624,385.813 338.834,405.366 355.922,417.268C369.958,427.193 389.833,437.518 417.536,445.233C417.536,445.233 496.704,466.908 498.588,525.341C497.399,538.74 493.131,551.684 486.118,563.162C479.104,574.64 480.311,582.939 467.228,590.591L522.141,590.591C522.141,590.591 587.134,542.207 555.84,461.367C545.8,435.939 528.075,414.265 505.146,399.376C483.755,385.327 460.896,373.65 436.974,364.553C427.002,360.705 420.389,351.066 420.389,340.377C420.389,333.914 422.807,327.679 427.165,322.906C436.74,312.371 447.063,302.542 458.054,293.494C495.765,262.395 489.176,206.791 489.176,206.791L455.235,206.791Z" style="fill:rgb(109,77,72);fill-rule:nonzero;"/>
    <path d="M601.151,357.671C600.106,375.214 594.986,387.649 587.593,396.379L634.202,401.694C647.614,378.165 643.249,357.671 643.249,357.671L601.151,357.671Z" style="fill:rgb(104,48,29);fill-rule:nonzero;"/>
    <path d="M547.487,369.379L700.664,369.379C700.664,369.379 771.233,374.929 777.275,333.144C779.143,321.671 774.888,310.018 766.066,302.449C765.581,302.049 765.075,301.657 764.548,301.273C759.481,297.636 755.561,292.621 753.254,286.826C748.002,273.153 729.282,249.386 662.576,249.386L613.365,249.386C595.557,249.247 578.061,254.093 562.864,263.374C557.035,266.945 551.708,271.274 547.021,276.249C539.884,284.074 531.679,290.854 522.649,296.388C522.367,296.56 522.082,296.732 521.798,296.911C491.346,315.774 500.24,363.028 535.635,368.522C539.558,369.112 543.52,369.399 547.487,369.379Z" style="fill:rgb(44,102,64);fill-rule:nonzero;"/>
    <path d="M455.235,206.791C455.235,206.791 458.384,227.146 441.214,249.379L485.334,249.379C489.064,235.511 490.364,221.102 489.176,206.791L455.235,206.791Z" style="fill:rgb(104,48,29);fill-rule:nonzero;"/>
    <path d="M224.141,222.442C231.009,222.207 237.901,222.165 244.769,222.339L502.605,228.878C502.605,228.878 513.148,230.054 526.52,221.955C536.265,216.111 547.534,213.3 558.882,213.882C593.212,215.506 662.438,213.838 695.089,178.028C706.111,165.941 702.414,146.264 687.325,139.965C686.854,139.767 686.36,139.572 685.856,139.384C681.08,137.581 677.028,134.257 674.327,129.925C665.068,115.04 637.633,81.661 574.118,72.906C557.084,70.459 540.65,64.879 525.647,56.449C496.769,40.449 438.049,20.059 350.391,46.424C350.391,46.424 215.744,-2.362 144.508,103.014C144.508,103.014 100.819,112.334 85.92,146.278C76.459,168.487 86.215,194.559 107.932,205.101C128.16,215.207 163.447,224.544 224.141,222.442Z" style="fill:rgb(44,102,64);fill-rule:nonzero;"/>
    <path d="M777.282,333.132C779.153,321.659 774.898,310.006 766.075,302.438C765.591,302.038 765.085,301.645 764.558,301.261C759.492,297.623 755.572,292.609 753.264,286.814C750.24,278.934 742.715,267.708 724.136,259.605C730.591,282.664 700.56,290.708 682.294,293.44C675.916,294.416 671.356,300.287 671.988,306.708C674.308,332.518 643.934,333.285 643.934,333.285L573.271,333.285C524.529,333.285 517.054,313.739 518.042,299.558C492.207,319.847 501.793,363.254 535.635,368.511C539.557,369.107 543.52,369.399 547.487,369.386L700.664,369.386C700.664,369.386 771.242,374.929 777.282,333.132Z" style="fill:rgb(36,71,48);fill-rule:nonzero;"/>
    <path d="M695.089,178.028C706.111,165.941 702.414,146.264 687.325,139.965C686.854,139.767 686.36,139.572 685.856,139.384C681.08,137.582 677.027,134.257 674.327,129.925C670.235,123.442 665.415,117.448 659.962,112.059C620.798,147.172 496.541,142.647 496.541,142.647L399.365,142.647C380.382,142.646 361.505,145.489 343.365,151.082L304.245,163.141C286.104,168.734 267.228,171.578 248.245,171.576L189.605,171.576C121.565,171.576 106.127,144.805 105.435,121.76C97.024,128.214 90.324,136.634 85.925,146.28C76.463,168.49 86.219,194.561 107.936,205.104C128.172,215.221 163.447,224.553 224.144,222.452C231.009,222.216 237.901,222.174 244.769,222.348L502.605,228.887C502.605,228.887 513.148,230.064 526.52,221.962C536.266,216.12 547.534,213.31 558.882,213.892C593.212,215.506 662.438,213.838 695.089,178.028Z" style="fill:rgb(36,71,48);fill-rule:nonzero;"/>
    <path d="M505.155,399.376C483.764,385.327 460.905,373.65 436.984,364.553C427.012,360.705 420.398,351.066 420.398,340.377C420.398,333.914 422.817,327.679 427.174,322.906C431.532,318.133 401.527,342.009 413.153,368.616C416.023,375.113 421.43,380.159 428.108,382.574C442.296,387.772 471.609,399.146 487.958,410.002C492.479,413.002 497.786,414.603 503.212,414.602L524.344,414.621C518.416,408.977 511.994,403.875 505.155,399.376Z" style="fill:rgb(104,48,29);fill-rule:nonzero;"/>
    <path d="M486.118,563.158C479.254,574.492 469.654,583.925 458.2,590.588L522.151,590.588C531.726,582.821 539.983,573.557 546.602,563.155L486.118,563.158Z" style="fill:rgb(109,77,72);fill-rule:nonzero;"/>
</svg>
